<svg xmlns="http://www.w3.org/2000/svg" viewBox="0 0 48 48"><defs><linearGradient id="a" x1="16.5" x2="23.5" y1="16.5" y2="23.5" gradientUnits="userSpaceOnUse"><stop offset="0" stop-color="#8E24AA"/><stop offset="1" stop-color="#5E35B1"/></linearGradient><linearGradient id="b" x1="24.5" x2="31.5" y1="24.5" y2="31.5" gradientUnits="userSpaceOnUse"><stop offset="0" stop-color="#42A5F5"/><stop offset="1" stop-color="#1E88E5"/></linearGradient></defs><path fill="#F3E5F5" d="M24,4C12.95,4,4,12.95,4,24s8.95,20,20,20s20-8.95,20-20S35.05,4,24,4z"/><circle cx="20" cy="20" r="7" fill="url(#a)"/><circle cx="28" cy="28" r="7" fill="url(#b)"/><path fill="#FFFFFF" d="M20 16c-2.2 0-4 1.8-4 4s1.8 4 4 4 4-1.8 4-4-1.8-4-4-4zm0 6c-1.1 0-2-.9-2-2s.9-2 2-2 2 .9 2 2-.9 2-2 2zM28 24c-2.2 0-4 1.8-4 4s1.8 4 4 4 4-1.8 4-4-1.8-4-4-4zm0 6c-1.1 0-2-.9-2-2s.9-2 2-2 2 .9 2 2-.9 2-2 2z"/><path fill="none" stroke="#FFFFFF" stroke-width="1.5" stroke-linecap="round" d="M20,13 V10 M28,38 V35 M13,20 H10 M38,28 H35"/></svg>