<svg xmlns="http://www.w3.org/2000/svg" viewBox="0 0 48 48"><path fill="#36C5F0" d="M12.5,14c-1.1,0-2-0.9-2-2s0.9-2,2-2h8c1.1,0,2,0.9,2,2v8c0,1.1-0.9,2-2,2s-2-0.9-2-2v-6H12.5z"/><path fill="#2EB67D" d="M22,12.5c0-1.1,0.9-2,2-2h8c1.1,0,2,0.9,2,2v8c0,1.1-0.9,2-2,2s-2-0.9-2-2v-6h-6C22.9,14.5,22,13.6,22,12.5z"/><path fill="#ECB22E" d="M34,22c-1.1,0-2,0.9-2,2v8c0,1.1,0.9,2,2,2h8c1.1,0,2-0.9,2-2v-8c0-1.1-0.9-2-2-2h-8V22z"/><path fill="#E01E5A" d="M22.5,34c-1.1,0-2,0.9-2,2v8c0,1.1,0.9,2,2,2h8c1.1,0,2-0.9,2-2v-8c0-1.1-0.9-2-2-2h-8V34z"/></svg>