<svg xmlns="http://www.w3.org/2000/svg" viewBox="0 0 48 48"><path fill="#4CAF50" d="M4,24C4,12.95,12.95,4,24,4s20,8.95,20,20s-8.95,20-20,20S4,35.05,4,24z"/><path fill="#FFFFFF" d="M24,12c-6.63,0-12,5.37-12,12s5.37,12,12,12s12-5.37,12-12S30.63,12,24,12z"/><path fill="#4CAF50" d="M24,14c5.52,0,10,4.48,10,10s-4.48,10-10,10s-10-4.48-10-10S18.48,14,24,14z"/><path fill="#FFFFFF" d="M20,18c-1.1,0-2,0.9-2,2s0.9,2,2,2s2-0.9,2-2S21.1,18,20,18z M28,18c-1.1,0-2,0.9-2,2s0.9,2,2,2s2-0.9,2-2S29.1,18,28,18z"/><path fill="#FFFFFF" d="M24,28c-3.31,0-6-2.69-6-6h2c0,2.21,1.79,4,4,4s4-1.79,4-4h2C30,25.31,27.31,28,24,28z"/></svg>